<?xml version="1.0" encoding="UTF-8"?>
<svg width="60" height="60" xmlns="http://www.w3.org/2000/svg">
	<g>
		<circle cx="30" cy="30" r="27" fill="#d9c624" stroke="#a80" stroke-width="4"/>
		<path d="M 20,30 L 30,20 L 30,50" stroke="#a80" stroke-width="6" fill="none"/>
		<path d="M 43,32 L 55,39 L 47,45 L 35,38 z" stroke="#aaf" fill="#00f" stroke-width="1" stroke-linejoin="round"/>
		<path d="M 55,39 L 50,51 L 42,57 L 47,45 z" stroke="#aaf" fill="#00f" stroke-width="1" stroke-linejoin="round"/>
		<path d="M 35,38 L 47,45 L 42,57 L 30,50 z" stroke="#aaf" fill="#00f" stroke-width="1" stroke-linejoin="round"/>
		<circle cx="41" cy="38" r="1.5" fill="#aaf"/>
		<circle cx="45.5" cy="38.5" r="1.5" fill="#aaf"/>
		<circle cx="50" cy="39" r="1.5" fill="#aaf"/>
		<circle cx="37" cy="43" r="1.5" fill="#aaf"/>
		<circle cx="43" cy="47" r="1.5" fill="#aaf"/>
		<circle cx="38.5" cy="48" r="1.5" fill="#aaf"/>
		<circle cx="34" cy="49" r="1.5" fill="#aaf"/>
		<circle cx="40" cy="53" r="1.5" fill="#aaf"/>
		<circle cx="48.5" cy="48" r="1.5" fill="#aaf"/>
	</g>
</svg>
