<?xml version="1.0" standalone="no"?>
<!DOCTYPE svg PUBLIC "-//W3C//DTD SVG 20010904//EN"
 "http://www.w3.org/TR/2001/REC-SVG-20010904/DTD/svg10.dtd">
<svg version="1.0" xmlns="http://www.w3.org/2000/svg"
 width="700.000000pt" height="700.000000pt" viewBox="0 0 700.000000 700.000000"
 preserveAspectRatio="xMidYMid meet">
<metadata>
Created by potrace 1.11, written by Peter Selinger 2001-2013
</metadata>
<g transform="translate(0.000000,700.000000) scale(0.100000,-0.100000)"
fill="#000000" stroke="none">
<path d="M3310 6874 c-376 -28 -731 -106 -1045 -231 -1168 -464 -1972 -1511
-2122 -2763 -23 -197 -23 -563 0 -760 114 -947 597 -1779 1365 -2348 286 -212
688 -410 1035 -511 326 -95 609 -135 957 -135 348 0 633 40 955 134 129 38
300 99 293 105 -5 4 -481 281 -504 293 -15 8 -42 6 -110 -9 -348 -79 -768 -89
-1123 -28 -1222 208 -2182 1168 -2390 2389 -271 1585 802 3098 2389 3369 1406
240 2783 -577 3251 -1929 194 -560 210 -1192 45 -1760 -13 -47 -22 -87 -20
-89 2 -3 44 -28 92 -56 59 -34 90 -59 96 -76 8 -23 -93 -276 -499 -1241 -8
-21 -13 -38 -11 -38 7 0 202 235 264 318 212 286 410 688 511 1035 95 326 135
609 135 957 0 264 -17 435 -65 672 -184 906 -733 1698 -1518 2191 -420 263
-909 435 -1401 492 -134 15 -474 26 -580 19z"/>
<path d="M2970 4625 l-875 -875 245 -245 245 -245 282 282 283 283 0 -1328 0
-1327 143 0 142 0 208 500 207 500 -2 1665 -3 1665 -875 -875z"/>
<path d="M4610 2894 c-223 -168 -409 -309 -413 -313 -4 -4 282 -178 637 -385
l645 -377 416 312 c229 172 412 315 408 319 -10 9 -1282 750 -1285 749 -2 0
-185 -138 -408 -305z m237 -169 c72 -30 105 -80 105 -156 0 -97 -74 -171 -173
-171 -181 0 -231 248 -65 323 50 23 85 24 133 4z m543 -68 c80 -42 110 -137
71 -223 -27 -59 -72 -87 -146 -92 -50 -3 -66 0 -95 20 -19 13 -45 39 -58 58
-20 29 -23 45 -20 95 5 74 33 119 92 146 55 25 104 24 156 -4z m537 -63 c102
-77 102 -211 0 -288 -41 -30 -126 -34 -174 -7 -59 34 -88 83 -88 151 0 66 28
116 85 150 45 27 137 24 177 -6z"/>
<path d="M4099 2458 c-82 -185 -526 -1265 -521 -1270 13 -12 1267 -741 1283
-745 12 -3 74 136 283 638 147 353 264 645 259 649 -12 11 -1282 750 -1288
750 -3 0 -10 -10 -16 -22z m306 -327 c94 -53 110 -188 31 -267 -107 -107 -288
-35 -288 115 0 136 139 218 257 152z m681 -460 c166 -75 116 -323 -65 -323
-99 0 -173 74 -173 171 0 75 33 125 102 155 47 20 87 19 136 -3z m-491 -135
c43 -33 65 -79 65 -136 0 -96 -62 -161 -158 -167 -46 -3 -65 1 -96 19 -47 27
-86 95 -86 148 0 53 39 121 86 148 55 32 137 27 189 -12z m-540 -105 c94 -53
110 -188 31 -267 -107 -107 -288 -35 -288 115 0 136 139 218 257 152z m681
-460 c166 -75 116 -323 -65 -323 -99 0 -173 74 -173 171 0 75 33 125 102 155
47 20 87 19 136 -3z"/>
<path d="M5900 1994 l-365 -275 -247 -591 c-136 -326 -246 -593 -244 -595 1
-2 169 122 373 275 l370 277 233 560 c128 308 239 575 247 593 7 17 10 32 6
31 -5 0 -172 -124 -373 -275z m-156 -447 c47 -26 86 -93 86 -147 0 -53 -39
-121 -86 -148 -82 -48 -205 -10 -240 74 -27 65 -12 157 32 196 59 53 143 63
208 25z"/>
</g>
</svg>
